<mxfile host="app.diagrams.net" modified="2023-05-03T21:26:47.549Z" agent="Mozilla/5.0 (X11; Ubuntu; Linux x86_64; rv:109.0) Gecko/20100101 Firefox/112.0" etag="Ni6r-EGwYRb7JefPLgVw" version="21.2.4" type="device">
  <diagram name="Página-1" id="bEvtYBGyxQvQHTi-NCgY">
    <mxGraphModel dx="1362" dy="729" grid="1" gridSize="10" guides="1" tooltips="1" connect="1" arrows="1" fold="1" page="1" pageScale="1" pageWidth="827" pageHeight="1169" math="0" shadow="0">
      <root>
        <mxCell id="0" />
        <mxCell id="1" parent="0" />
        <mxCell id="rHd2r1EJYfriM0uOoG0Q-19" value="«Filter &amp;gt;30»&lt;br&gt;&lt;b&gt;Application&lt;/b&gt;" style="html=1;dropTarget=0;whiteSpace=wrap;" parent="1" vertex="1">
          <mxGeometry x="510" y="50" width="150" height="70" as="geometry" />
        </mxCell>
        <mxCell id="rHd2r1EJYfriM0uOoG0Q-20" value="" style="shape=module;jettyWidth=8;jettyHeight=4;" parent="rHd2r1EJYfriM0uOoG0Q-19" vertex="1">
          <mxGeometry x="1" width="20" height="20" relative="1" as="geometry">
            <mxPoint x="-27" y="7" as="offset" />
          </mxGeometry>
        </mxCell>
        <mxCell id="-Pin-YGtVTk7OawtG1on-16" value="Processor" style="verticalAlign=top;align=left;spacingTop=8;spacingLeft=2;spacingRight=12;shape=cube;size=10;direction=south;fontStyle=4;html=1;whiteSpace=wrap;" parent="1" vertex="1">
          <mxGeometry x="260" y="190" width="180" height="120" as="geometry" />
        </mxCell>
        <mxCell id="-Pin-YGtVTk7OawtG1on-17" value="«Weathers»&lt;br&gt;&lt;b&gt;Application&lt;/b&gt;" style="html=1;dropTarget=0;whiteSpace=wrap;" parent="1" vertex="1">
          <mxGeometry x="270" y="230" width="150" height="70" as="geometry" />
        </mxCell>
        <mxCell id="-Pin-YGtVTk7OawtG1on-18" value="" style="shape=module;jettyWidth=8;jettyHeight=4;" parent="-Pin-YGtVTk7OawtG1on-17" vertex="1">
          <mxGeometry x="1" width="20" height="20" relative="1" as="geometry">
            <mxPoint x="-27" y="7" as="offset" />
          </mxGeometry>
        </mxCell>
        <mxCell id="-Pin-YGtVTk7OawtG1on-29" value="Server Listener" style="verticalAlign=top;align=left;spacingTop=8;spacingLeft=2;spacingRight=12;shape=cube;size=10;direction=south;fontStyle=4;html=1;whiteSpace=wrap;" parent="1" vertex="1">
          <mxGeometry x="414" y="515" width="180" height="120" as="geometry" />
        </mxCell>
        <mxCell id="-Pin-YGtVTk7OawtG1on-30" value="«Socket Endpoint»&lt;br&gt;&lt;b&gt;Application&lt;/b&gt;" style="html=1;dropTarget=0;whiteSpace=wrap;" parent="1" vertex="1">
          <mxGeometry x="424" y="555" width="150" height="70" as="geometry" />
        </mxCell>
        <mxCell id="-Pin-YGtVTk7OawtG1on-31" value="" style="shape=module;jettyWidth=8;jettyHeight=4;" parent="-Pin-YGtVTk7OawtG1on-30" vertex="1">
          <mxGeometry x="1" width="20" height="20" relative="1" as="geometry">
            <mxPoint x="-27" y="7" as="offset" />
          </mxGeometry>
        </mxCell>
        <mxCell id="-Pin-YGtVTk7OawtG1on-35" value="" style="endArrow=open;endFill=1;endSize=12;html=1;rounded=0;entryX=1;entryY=0.889;entryDx=0;entryDy=0;entryPerimeter=0;" parent="1" target="rHd2r1EJYfriM0uOoG0Q-2" edge="1">
          <mxGeometry width="160" relative="1" as="geometry">
            <mxPoint x="590" y="510" as="sourcePoint" />
            <mxPoint x="350" y="355" as="targetPoint" />
          </mxGeometry>
        </mxCell>
        <mxCell id="-Pin-YGtVTk7OawtG1on-43" value="Data Collector" style="verticalAlign=top;align=left;spacingTop=8;spacingLeft=2;spacingRight=12;shape=cube;size=10;direction=south;fontStyle=4;html=1;whiteSpace=wrap;" parent="1" vertex="1">
          <mxGeometry x="950" y="360" width="180" height="120" as="geometry" />
        </mxCell>
        <mxCell id="-Pin-YGtVTk7OawtG1on-44" value="«Query Result &lt;br&gt;Joiner»&lt;br&gt;&lt;b&gt;Application&lt;/b&gt;" style="html=1;dropTarget=0;whiteSpace=wrap;" parent="1" vertex="1">
          <mxGeometry x="960" y="400" width="150" height="70" as="geometry" />
        </mxCell>
        <mxCell id="-Pin-YGtVTk7OawtG1on-45" value="" style="shape=module;jettyWidth=8;jettyHeight=4;" parent="-Pin-YGtVTk7OawtG1on-44" vertex="1">
          <mxGeometry x="1" width="20" height="20" relative="1" as="geometry">
            <mxPoint x="-27" y="7" as="offset" />
          </mxGeometry>
        </mxCell>
        <mxCell id="rHd2r1EJYfriM0uOoG0Q-2" value="Queues and Exchanges" style="verticalAlign=top;align=left;spacingTop=8;spacingLeft=2;spacingRight=12;shape=cube;size=10;direction=south;fontStyle=4;html=1;whiteSpace=wrap;" parent="1" vertex="1">
          <mxGeometry x="620" y="240" width="180" height="120" as="geometry" />
        </mxCell>
        <mxCell id="rHd2r1EJYfriM0uOoG0Q-3" value="«RabbitMQ»&lt;br&gt;&lt;b&gt;Application&lt;/b&gt;" style="html=1;dropTarget=0;whiteSpace=wrap;" parent="1" vertex="1">
          <mxGeometry x="630" y="280" width="150" height="70" as="geometry" />
        </mxCell>
        <mxCell id="rHd2r1EJYfriM0uOoG0Q-4" value="" style="shape=module;jettyWidth=8;jettyHeight=4;" parent="rHd2r1EJYfriM0uOoG0Q-3" vertex="1">
          <mxGeometry x="1" width="20" height="20" relative="1" as="geometry">
            <mxPoint x="-27" y="7" as="offset" />
          </mxGeometry>
        </mxCell>
        <mxCell id="rHd2r1EJYfriM0uOoG0Q-5" value="Processor" style="verticalAlign=top;align=left;spacingTop=8;spacingLeft=2;spacingRight=12;shape=cube;size=10;direction=south;fontStyle=4;html=1;whiteSpace=wrap;" parent="1" vertex="1">
          <mxGeometry x="620" y="520" width="180" height="120" as="geometry" />
        </mxCell>
        <mxCell id="rHd2r1EJYfriM0uOoG0Q-6" value="«Trips»&lt;br&gt;&lt;b&gt;Application&lt;/b&gt;" style="html=1;dropTarget=0;whiteSpace=wrap;" parent="1" vertex="1">
          <mxGeometry x="630" y="560" width="150" height="70" as="geometry" />
        </mxCell>
        <mxCell id="rHd2r1EJYfriM0uOoG0Q-7" value="" style="shape=module;jettyWidth=8;jettyHeight=4;" parent="rHd2r1EJYfriM0uOoG0Q-6" vertex="1">
          <mxGeometry x="1" width="20" height="20" relative="1" as="geometry">
            <mxPoint x="-27" y="7" as="offset" />
          </mxGeometry>
        </mxCell>
        <mxCell id="rHd2r1EJYfriM0uOoG0Q-8" value="" style="endArrow=open;endFill=1;endSize=12;html=1;rounded=0;entryX=0.733;entryY=-0.033;entryDx=0;entryDy=0;entryPerimeter=0;exitX=0.35;exitY=1.022;exitDx=0;exitDy=0;exitPerimeter=0;" parent="1" source="rHd2r1EJYfriM0uOoG0Q-2" target="-Pin-YGtVTk7OawtG1on-16" edge="1">
          <mxGeometry width="160" relative="1" as="geometry">
            <mxPoint x="470" y="590" as="sourcePoint" />
            <mxPoint x="630" y="370" as="targetPoint" />
          </mxGeometry>
        </mxCell>
        <mxCell id="rHd2r1EJYfriM0uOoG0Q-9" value="" style="endArrow=open;endFill=1;endSize=12;html=1;rounded=0;exitX=1.042;exitY=0.622;exitDx=0;exitDy=0;exitPerimeter=0;entryX=0.008;entryY=0.533;entryDx=0;entryDy=0;entryPerimeter=0;" parent="1" source="rHd2r1EJYfriM0uOoG0Q-2" target="rHd2r1EJYfriM0uOoG0Q-5" edge="1">
          <mxGeometry width="160" relative="1" as="geometry">
            <mxPoint x="630" y="315" as="sourcePoint" />
            <mxPoint x="660" y="520" as="targetPoint" />
          </mxGeometry>
        </mxCell>
        <mxCell id="rHd2r1EJYfriM0uOoG0Q-10" value="" style="endArrow=open;endFill=1;endSize=12;html=1;rounded=0;exitX=0.017;exitY=0.389;exitDx=0;exitDy=0;exitPerimeter=0;entryX=1.025;entryY=0.317;entryDx=0;entryDy=0;entryPerimeter=0;" parent="1" source="rHd2r1EJYfriM0uOoG0Q-5" target="rHd2r1EJYfriM0uOoG0Q-2" edge="1">
          <mxGeometry width="160" relative="1" as="geometry">
            <mxPoint x="658.98" y="373" as="sourcePoint" />
            <mxPoint x="670" y="530" as="targetPoint" />
          </mxGeometry>
        </mxCell>
        <mxCell id="rHd2r1EJYfriM0uOoG0Q-11" value="" style="endArrow=open;endFill=1;endSize=12;html=1;rounded=0;entryX=0.167;entryY=1;entryDx=0;entryDy=0;entryPerimeter=0;" parent="1" source="-Pin-YGtVTk7OawtG1on-16" target="rHd2r1EJYfriM0uOoG0Q-2" edge="1">
          <mxGeometry width="160" relative="1" as="geometry">
            <mxPoint x="739.98" y="537.04" as="sourcePoint" />
            <mxPoint x="752.94" y="373" as="targetPoint" />
          </mxGeometry>
        </mxCell>
        <mxCell id="rHd2r1EJYfriM0uOoG0Q-12" value="Rainy Days" style="verticalAlign=top;align=left;spacingTop=8;spacingLeft=2;spacingRight=12;shape=cube;size=10;direction=south;fontStyle=4;html=1;whiteSpace=wrap;" parent="1" vertex="1">
          <mxGeometry x="490" y="20" width="180" height="120" as="geometry" />
        </mxCell>
        <mxCell id="rHd2r1EJYfriM0uOoG0Q-13" value="«Filter &amp;gt;30»&lt;br&gt;&lt;b&gt;Application&lt;/b&gt;" style="html=1;dropTarget=0;whiteSpace=wrap;" parent="1" vertex="1">
          <mxGeometry x="500" y="60" width="150" height="70" as="geometry" />
        </mxCell>
        <mxCell id="rHd2r1EJYfriM0uOoG0Q-14" value="" style="shape=module;jettyWidth=8;jettyHeight=4;" parent="rHd2r1EJYfriM0uOoG0Q-13" vertex="1">
          <mxGeometry x="1" width="20" height="20" relative="1" as="geometry">
            <mxPoint x="-27" y="7" as="offset" />
          </mxGeometry>
        </mxCell>
        <mxCell id="rHd2r1EJYfriM0uOoG0Q-15" value="" style="endArrow=open;endFill=1;endSize=12;html=1;rounded=0;exitX=-0.017;exitY=0.8;exitDx=0;exitDy=0;exitPerimeter=0;entryX=1.025;entryY=0.283;entryDx=0;entryDy=0;entryPerimeter=0;" parent="1" source="rHd2r1EJYfriM0uOoG0Q-2" target="rHd2r1EJYfriM0uOoG0Q-12" edge="1">
          <mxGeometry width="160" relative="1" as="geometry">
            <mxPoint x="739.98" y="537.04" as="sourcePoint" />
            <mxPoint x="752.94" y="373" as="targetPoint" />
          </mxGeometry>
        </mxCell>
        <mxCell id="rHd2r1EJYfriM0uOoG0Q-16" value="" style="endArrow=open;endFill=1;endSize=12;html=1;rounded=0;exitX=0;exitY=0;exitDx=120;exitDy=10;exitPerimeter=0;entryX=0;entryY=0.633;entryDx=0;entryDy=0;entryPerimeter=0;" parent="1" source="rHd2r1EJYfriM0uOoG0Q-12" target="rHd2r1EJYfriM0uOoG0Q-2" edge="1">
          <mxGeometry width="160" relative="1" as="geometry">
            <mxPoint x="630" y="260" as="sourcePoint" />
            <mxPoint x="499.05999999999995" y="173" as="targetPoint" />
          </mxGeometry>
        </mxCell>
        <mxCell id="rHd2r1EJYfriM0uOoG0Q-26" value="" style="endArrow=open;endFill=1;endSize=12;html=1;rounded=0;exitX=0.725;exitY=1.017;exitDx=0;exitDy=0;exitPerimeter=0;entryX=1.025;entryY=0.283;entryDx=0;entryDy=0;entryPerimeter=0;" parent="1" source="-Pin-YGtVTk7OawtG1on-43" edge="1">
          <mxGeometry width="160" relative="1" as="geometry">
            <mxPoint x="856.94" y="422.96000000000004" as="sourcePoint" />
            <mxPoint x="800" y="348" as="targetPoint" />
          </mxGeometry>
        </mxCell>
        <mxCell id="rHd2r1EJYfriM0uOoG0Q-27" value="" style="endArrow=open;endFill=1;endSize=12;html=1;rounded=0;exitX=0.758;exitY=-0.011;exitDx=0;exitDy=0;exitPerimeter=0;entryX=0.475;entryY=1.011;entryDx=0;entryDy=0;entryPerimeter=0;" parent="1" source="rHd2r1EJYfriM0uOoG0Q-2" target="-Pin-YGtVTk7OawtG1on-43" edge="1">
          <mxGeometry width="160" relative="1" as="geometry">
            <mxPoint x="840.94" y="345" as="sourcePoint" />
            <mxPoint x="887" y="425" as="targetPoint" />
          </mxGeometry>
        </mxCell>
        <mxCell id="rHd2r1EJYfriM0uOoG0Q-29" value="«Filter &amp;gt;30»&lt;br&gt;&lt;b&gt;Application&lt;/b&gt;" style="html=1;dropTarget=0;whiteSpace=wrap;" parent="1" vertex="1">
          <mxGeometry x="710" y="70" width="150" height="70" as="geometry" />
        </mxCell>
        <mxCell id="rHd2r1EJYfriM0uOoG0Q-30" value="" style="shape=module;jettyWidth=8;jettyHeight=4;" parent="rHd2r1EJYfriM0uOoG0Q-29" vertex="1">
          <mxGeometry x="1" width="20" height="20" relative="1" as="geometry">
            <mxPoint x="-27" y="7" as="offset" />
          </mxGeometry>
        </mxCell>
        <mxCell id="rHd2r1EJYfriM0uOoG0Q-31" value="Calculator" style="verticalAlign=top;align=left;spacingTop=8;spacingLeft=2;spacingRight=12;shape=cube;size=10;direction=south;fontStyle=4;html=1;whiteSpace=wrap;" parent="1" vertex="1">
          <mxGeometry x="690" y="40" width="180" height="120" as="geometry" />
        </mxCell>
        <mxCell id="rHd2r1EJYfriM0uOoG0Q-32" value="«Duration Mean»&lt;br&gt;&lt;b&gt;Application&lt;/b&gt;" style="html=1;dropTarget=0;whiteSpace=wrap;" parent="1" vertex="1">
          <mxGeometry x="700" y="80" width="150" height="70" as="geometry" />
        </mxCell>
        <mxCell id="rHd2r1EJYfriM0uOoG0Q-33" value="" style="shape=module;jettyWidth=8;jettyHeight=4;" parent="rHd2r1EJYfriM0uOoG0Q-32" vertex="1">
          <mxGeometry x="1" width="20" height="20" relative="1" as="geometry">
            <mxPoint x="-27" y="7" as="offset" />
          </mxGeometry>
        </mxCell>
        <mxCell id="rHd2r1EJYfriM0uOoG0Q-34" value="" style="endArrow=open;endFill=1;endSize=12;html=1;rounded=0;entryX=-0.033;entryY=0.278;entryDx=0;entryDy=0;entryPerimeter=0;exitX=1.017;exitY=0.628;exitDx=0;exitDy=0;exitPerimeter=0;" parent="1" source="rHd2r1EJYfriM0uOoG0Q-31" target="rHd2r1EJYfriM0uOoG0Q-2" edge="1">
          <mxGeometry width="160" relative="1" as="geometry">
            <mxPoint x="520" y="565" as="sourcePoint" />
            <mxPoint x="649.98" y="370" as="targetPoint" />
          </mxGeometry>
        </mxCell>
        <mxCell id="rHd2r1EJYfriM0uOoG0Q-35" value="" style="endArrow=open;endFill=1;endSize=12;html=1;rounded=0;entryX=1.017;entryY=0.944;entryDx=0;entryDy=0;entryPerimeter=0;exitX=-0.042;exitY=0.4;exitDx=0;exitDy=0;exitPerimeter=0;" parent="1" source="rHd2r1EJYfriM0uOoG0Q-2" target="rHd2r1EJYfriM0uOoG0Q-31" edge="1">
          <mxGeometry width="160" relative="1" as="geometry">
            <mxPoint x="926.96" y="182.03999999999996" as="sourcePoint" />
            <mxPoint x="813.06" y="288.03999999999996" as="targetPoint" />
          </mxGeometry>
        </mxCell>
        <mxCell id="ZEGDszfYdUQHCX0gs1Bg-1" value="" style="endArrow=open;endFill=1;endSize=12;html=1;rounded=0;exitX=1.025;exitY=0.95;exitDx=0;exitDy=0;exitPerimeter=0;" edge="1" parent="1" source="rHd2r1EJYfriM0uOoG0Q-2">
          <mxGeometry width="160" relative="1" as="geometry">
            <mxPoint x="927" y="182" as="sourcePoint" />
            <mxPoint x="580" y="510" as="targetPoint" />
          </mxGeometry>
        </mxCell>
        <mxCell id="ZEGDszfYdUQHCX0gs1Bg-2" value="Filter" style="verticalAlign=top;align=left;spacingTop=8;spacingLeft=2;spacingRight=12;shape=cube;size=10;direction=south;fontStyle=4;html=1;whiteSpace=wrap;" vertex="1" parent="1">
          <mxGeometry x="845" y="500" width="180" height="120" as="geometry" />
        </mxCell>
        <mxCell id="ZEGDszfYdUQHCX0gs1Bg-3" value="«Montreal Station»&lt;br&gt;&lt;b&gt;Application&lt;/b&gt;" style="html=1;dropTarget=0;whiteSpace=wrap;" vertex="1" parent="1">
          <mxGeometry x="855" y="540" width="150" height="70" as="geometry" />
        </mxCell>
        <mxCell id="ZEGDszfYdUQHCX0gs1Bg-4" value="" style="shape=module;jettyWidth=8;jettyHeight=4;" vertex="1" parent="ZEGDszfYdUQHCX0gs1Bg-3">
          <mxGeometry x="1" width="20" height="20" relative="1" as="geometry">
            <mxPoint x="-27" y="7" as="offset" />
          </mxGeometry>
        </mxCell>
        <mxCell id="ZEGDszfYdUQHCX0gs1Bg-5" value="" style="endArrow=open;endFill=1;endSize=12;html=1;rounded=0;exitX=0;exitY=0;exitDx=5;exitDy=175;exitPerimeter=0;entryX=1.033;entryY=0.128;entryDx=0;entryDy=0;entryPerimeter=0;" edge="1" parent="1" source="ZEGDszfYdUQHCX0gs1Bg-2" target="rHd2r1EJYfriM0uOoG0Q-2">
          <mxGeometry width="160" relative="1" as="geometry">
            <mxPoint x="897" y="471" as="sourcePoint" />
            <mxPoint x="780" y="417" as="targetPoint" />
          </mxGeometry>
        </mxCell>
        <mxCell id="ZEGDszfYdUQHCX0gs1Bg-6" value="" style="endArrow=open;endFill=1;endSize=12;html=1;rounded=0;exitX=0;exitY=0;exitDx=120;exitDy=10;exitPerimeter=0;entryX=-0.008;entryY=0.828;entryDx=0;entryDy=0;entryPerimeter=0;" edge="1" parent="1" source="rHd2r1EJYfriM0uOoG0Q-2" target="ZEGDszfYdUQHCX0gs1Bg-2">
          <mxGeometry width="160" relative="1" as="geometry">
            <mxPoint x="782" y="400" as="sourcePoint" />
            <mxPoint x="898" y="441" as="targetPoint" />
          </mxGeometry>
        </mxCell>
        <mxCell id="ZEGDszfYdUQHCX0gs1Bg-7" value="Filter" style="verticalAlign=top;align=left;spacingTop=8;spacingLeft=2;spacingRight=12;shape=cube;size=10;direction=south;fontStyle=4;html=1;whiteSpace=wrap;" vertex="1" parent="1">
          <mxGeometry x="970" y="200" width="180" height="120" as="geometry" />
        </mxCell>
        <mxCell id="ZEGDszfYdUQHCX0gs1Bg-8" value="«Year 16/17»&lt;br&gt;&lt;b&gt;Application&lt;/b&gt;" style="html=1;dropTarget=0;whiteSpace=wrap;" vertex="1" parent="1">
          <mxGeometry x="980" y="240" width="150" height="70" as="geometry" />
        </mxCell>
        <mxCell id="ZEGDszfYdUQHCX0gs1Bg-9" value="" style="shape=module;jettyWidth=8;jettyHeight=4;" vertex="1" parent="ZEGDszfYdUQHCX0gs1Bg-8">
          <mxGeometry x="1" width="20" height="20" relative="1" as="geometry">
            <mxPoint x="-27" y="7" as="offset" />
          </mxGeometry>
        </mxCell>
        <mxCell id="ZEGDszfYdUQHCX0gs1Bg-10" value="" style="endArrow=open;endFill=1;endSize=12;html=1;rounded=0;exitX=0;exitY=0;exitDx=55;exitDy=0;exitPerimeter=0;entryX=0;entryY=0;entryDx=65;entryDy=180;entryPerimeter=0;" edge="1" parent="1" source="rHd2r1EJYfriM0uOoG0Q-2" target="ZEGDszfYdUQHCX0gs1Bg-7">
          <mxGeometry width="160" relative="1" as="geometry">
            <mxPoint x="812" y="341" as="sourcePoint" />
            <mxPoint x="958" y="427" as="targetPoint" />
          </mxGeometry>
        </mxCell>
        <mxCell id="ZEGDszfYdUQHCX0gs1Bg-11" value="" style="endArrow=open;endFill=1;endSize=12;html=1;rounded=0;exitX=0.708;exitY=1.006;exitDx=0;exitDy=0;exitPerimeter=0;entryX=0.617;entryY=-0.006;entryDx=0;entryDy=0;entryPerimeter=0;" edge="1" parent="1" source="ZEGDszfYdUQHCX0gs1Bg-7" target="rHd2r1EJYfriM0uOoG0Q-2">
          <mxGeometry width="160" relative="1" as="geometry">
            <mxPoint x="810" y="305" as="sourcePoint" />
            <mxPoint x="870" y="330" as="targetPoint" />
          </mxGeometry>
        </mxCell>
        <mxCell id="ZEGDszfYdUQHCX0gs1Bg-12" value="Filter" style="verticalAlign=top;align=left;spacingTop=8;spacingLeft=2;spacingRight=12;shape=cube;size=10;direction=south;fontStyle=4;html=1;whiteSpace=wrap;" vertex="1" parent="1">
          <mxGeometry x="920" y="50" width="180" height="120" as="geometry" />
        </mxCell>
        <mxCell id="ZEGDszfYdUQHCX0gs1Bg-13" value="«Montreal trips»&lt;br&gt;&lt;b&gt;Application&lt;/b&gt;" style="html=1;dropTarget=0;whiteSpace=wrap;" vertex="1" parent="1">
          <mxGeometry x="930" y="90" width="150" height="70" as="geometry" />
        </mxCell>
        <mxCell id="ZEGDszfYdUQHCX0gs1Bg-14" value="" style="shape=module;jettyWidth=8;jettyHeight=4;" vertex="1" parent="ZEGDszfYdUQHCX0gs1Bg-13">
          <mxGeometry x="1" width="20" height="20" relative="1" as="geometry">
            <mxPoint x="-27" y="7" as="offset" />
          </mxGeometry>
        </mxCell>
        <mxCell id="ZEGDszfYdUQHCX0gs1Bg-15" value="" style="endArrow=open;endFill=1;endSize=12;html=1;rounded=0;exitX=0;exitY=0;exitDx=0;exitDy=0;exitPerimeter=0;entryX=1;entryY=1;entryDx=0;entryDy=0;entryPerimeter=0;" edge="1" parent="1" source="rHd2r1EJYfriM0uOoG0Q-2" target="ZEGDszfYdUQHCX0gs1Bg-12">
          <mxGeometry width="160" relative="1" as="geometry">
            <mxPoint x="810" y="305" as="sourcePoint" />
            <mxPoint x="980" y="275" as="targetPoint" />
          </mxGeometry>
        </mxCell>
        <mxCell id="ZEGDszfYdUQHCX0gs1Bg-16" value="" style="endArrow=open;endFill=1;endSize=12;html=1;rounded=0;exitX=1.042;exitY=0.956;exitDx=0;exitDy=0;exitPerimeter=0;entryX=0.125;entryY=-0.022;entryDx=0;entryDy=0;entryPerimeter=0;" edge="1" parent="1" source="ZEGDszfYdUQHCX0gs1Bg-12" target="rHd2r1EJYfriM0uOoG0Q-2">
          <mxGeometry width="160" relative="1" as="geometry">
            <mxPoint x="810" y="250" as="sourcePoint" />
            <mxPoint x="890" y="250" as="targetPoint" />
          </mxGeometry>
        </mxCell>
        <mxCell id="ZEGDszfYdUQHCX0gs1Bg-17" value="Calculator" style="verticalAlign=top;align=left;spacingTop=8;spacingLeft=2;spacingRight=12;shape=cube;size=10;direction=south;fontStyle=4;html=1;whiteSpace=wrap;" vertex="1" parent="1">
          <mxGeometry x="270" y="320" width="180" height="120" as="geometry" />
        </mxCell>
        <mxCell id="ZEGDszfYdUQHCX0gs1Bg-18" value="«Harversine»&lt;br&gt;&lt;b&gt;Application&lt;/b&gt;" style="html=1;dropTarget=0;whiteSpace=wrap;" vertex="1" parent="1">
          <mxGeometry x="280" y="360" width="150" height="70" as="geometry" />
        </mxCell>
        <mxCell id="ZEGDszfYdUQHCX0gs1Bg-19" value="" style="shape=module;jettyWidth=8;jettyHeight=4;" vertex="1" parent="ZEGDszfYdUQHCX0gs1Bg-18">
          <mxGeometry x="1" width="20" height="20" relative="1" as="geometry">
            <mxPoint x="-27" y="7" as="offset" />
          </mxGeometry>
        </mxCell>
        <mxCell id="ZEGDszfYdUQHCX0gs1Bg-20" value="" style="endArrow=open;endFill=1;endSize=12;html=1;rounded=0;entryX=0.25;entryY=-0.011;entryDx=0;entryDy=0;entryPerimeter=0;exitX=0;exitY=0;exitDx=65;exitDy=180;exitPerimeter=0;" edge="1" parent="1" source="rHd2r1EJYfriM0uOoG0Q-2" target="ZEGDszfYdUQHCX0gs1Bg-17">
          <mxGeometry width="160" relative="1" as="geometry">
            <mxPoint x="626" y="292" as="sourcePoint" />
            <mxPoint x="476" y="278" as="targetPoint" />
          </mxGeometry>
        </mxCell>
        <mxCell id="ZEGDszfYdUQHCX0gs1Bg-21" value="" style="endArrow=open;endFill=1;endSize=12;html=1;rounded=0;exitX=0.4;exitY=-0.022;exitDx=0;exitDy=0;exitPerimeter=0;entryX=0.658;entryY=1.011;entryDx=0;entryDy=0;entryPerimeter=0;" edge="1" parent="1" source="ZEGDszfYdUQHCX0gs1Bg-17" target="rHd2r1EJYfriM0uOoG0Q-2">
          <mxGeometry width="160" relative="1" as="geometry">
            <mxPoint x="630" y="315" as="sourcePoint" />
            <mxPoint x="550" y="360" as="targetPoint" />
          </mxGeometry>
        </mxCell>
        <mxCell id="ZEGDszfYdUQHCX0gs1Bg-22" value="Calculator" style="verticalAlign=top;align=left;spacingTop=8;spacingLeft=2;spacingRight=12;shape=cube;size=10;direction=south;fontStyle=4;html=1;whiteSpace=wrap;" vertex="1" parent="1">
          <mxGeometry x="220" y="470" width="180" height="120" as="geometry" />
        </mxCell>
        <mxCell id="ZEGDszfYdUQHCX0gs1Bg-23" value="«Distance mean»&lt;br&gt;&lt;b&gt;Application&lt;/b&gt;" style="html=1;dropTarget=0;whiteSpace=wrap;" vertex="1" parent="1">
          <mxGeometry x="230" y="510" width="150" height="70" as="geometry" />
        </mxCell>
        <mxCell id="ZEGDszfYdUQHCX0gs1Bg-24" value="" style="shape=module;jettyWidth=8;jettyHeight=4;" vertex="1" parent="ZEGDszfYdUQHCX0gs1Bg-23">
          <mxGeometry x="1" width="20" height="20" relative="1" as="geometry">
            <mxPoint x="-27" y="7" as="offset" />
          </mxGeometry>
        </mxCell>
        <mxCell id="ZEGDszfYdUQHCX0gs1Bg-25" value="" style="endArrow=open;endFill=1;endSize=12;html=1;rounded=0;exitX=0.875;exitY=1.011;exitDx=0;exitDy=0;exitPerimeter=0;entryX=0;entryY=0;entryDx=0;entryDy=0;entryPerimeter=0;" edge="1" parent="1" source="rHd2r1EJYfriM0uOoG0Q-2" target="ZEGDszfYdUQHCX0gs1Bg-22">
          <mxGeometry width="160" relative="1" as="geometry">
            <mxPoint x="629" y="362" as="sourcePoint" />
            <mxPoint x="590" y="520" as="targetPoint" />
          </mxGeometry>
        </mxCell>
        <mxCell id="ZEGDszfYdUQHCX0gs1Bg-26" value="" style="endArrow=open;endFill=1;endSize=12;html=1;rounded=0;exitX=0.142;exitY=-0.006;exitDx=0;exitDy=0;exitPerimeter=0;" edge="1" parent="1" source="ZEGDszfYdUQHCX0gs1Bg-22">
          <mxGeometry width="160" relative="1" as="geometry">
            <mxPoint x="628" y="355" as="sourcePoint" />
            <mxPoint x="620" y="360" as="targetPoint" />
          </mxGeometry>
        </mxCell>
        <mxCell id="ZEGDszfYdUQHCX0gs1Bg-27" value="«Filter &amp;gt;30»&lt;br&gt;&lt;b&gt;Application&lt;/b&gt;" style="html=1;dropTarget=0;whiteSpace=wrap;" vertex="1" parent="1">
          <mxGeometry x="290" y="70" width="150" height="70" as="geometry" />
        </mxCell>
        <mxCell id="ZEGDszfYdUQHCX0gs1Bg-28" value="" style="shape=module;jettyWidth=8;jettyHeight=4;" vertex="1" parent="ZEGDszfYdUQHCX0gs1Bg-27">
          <mxGeometry x="1" width="20" height="20" relative="1" as="geometry">
            <mxPoint x="-27" y="7" as="offset" />
          </mxGeometry>
        </mxCell>
        <mxCell id="ZEGDszfYdUQHCX0gs1Bg-29" value="Processor" style="verticalAlign=top;align=left;spacingTop=8;spacingLeft=2;spacingRight=12;shape=cube;size=10;direction=south;fontStyle=4;html=1;whiteSpace=wrap;" vertex="1" parent="1">
          <mxGeometry x="270" y="40" width="180" height="120" as="geometry" />
        </mxCell>
        <mxCell id="ZEGDszfYdUQHCX0gs1Bg-30" value="«Stations»&lt;br&gt;&lt;b&gt;Application&lt;/b&gt;" style="html=1;dropTarget=0;whiteSpace=wrap;" vertex="1" parent="1">
          <mxGeometry x="280" y="80" width="150" height="70" as="geometry" />
        </mxCell>
        <mxCell id="ZEGDszfYdUQHCX0gs1Bg-31" value="" style="shape=module;jettyWidth=8;jettyHeight=4;" vertex="1" parent="ZEGDszfYdUQHCX0gs1Bg-30">
          <mxGeometry x="1" width="20" height="20" relative="1" as="geometry">
            <mxPoint x="-27" y="7" as="offset" />
          </mxGeometry>
        </mxCell>
        <mxCell id="ZEGDszfYdUQHCX0gs1Bg-32" value="" style="endArrow=open;endFill=1;endSize=12;html=1;rounded=0;entryX=0;entryY=0;entryDx=5;entryDy=175;entryPerimeter=0;exitX=0.758;exitY=-0.017;exitDx=0;exitDy=0;exitPerimeter=0;" edge="1" parent="1" source="ZEGDszfYdUQHCX0gs1Bg-29" target="rHd2r1EJYfriM0uOoG0Q-2">
          <mxGeometry width="160" relative="1" as="geometry">
            <mxPoint x="450" y="263" as="sourcePoint" />
            <mxPoint x="630" y="270" as="targetPoint" />
          </mxGeometry>
        </mxCell>
        <mxCell id="ZEGDszfYdUQHCX0gs1Bg-33" value="" style="endArrow=open;endFill=1;endSize=12;html=1;rounded=0;entryX=0;entryY=0;entryDx=115;entryDy=5;entryPerimeter=0;exitX=0;exitY=0;exitDx=10;exitDy=180;exitPerimeter=0;" edge="1" parent="1" source="rHd2r1EJYfriM0uOoG0Q-2" target="ZEGDszfYdUQHCX0gs1Bg-29">
          <mxGeometry width="160" relative="1" as="geometry">
            <mxPoint x="520" y="230" as="sourcePoint" />
            <mxPoint x="635" y="255" as="targetPoint" />
          </mxGeometry>
        </mxCell>
      </root>
    </mxGraphModel>
  </diagram>
</mxfile>
